<svg xmlns="http://www.w3.org/2000/svg" viewBox="0 0 64 64">
  <defs>
    <linearGradient id="bg" x1="0" y1="0" x2="1" y2="1">
      <stop offset="0%" stop-color="#FFF4E8"/>
      <stop offset="100%" stop-color="#FFE7D4"/>
    </linearGradient>
    <linearGradient id="cloth" x1="0" y1="0" x2="0" y2="1">
      <stop offset="0%" stop-color="#A7D8CC"/>
      <stop offset="100%" stop-color="#6FB6A5"/>
    </linearGradient>
  </defs>

  <rect x="4" y="4" width="56" height="56" rx="16" fill="url(#bg)"/>
  <ellipse cx="32" cy="52" rx="16" ry="4" fill="#F6DCC9"/>

  <ellipse cx="37" cy="36.5" rx="16" ry="11" fill="url(#cloth)"/>
  <ellipse cx="28" cy="28" rx="9.5" ry="9" fill="#FFD9BD"/>
  <ellipse cx="24.5" cy="22.3" rx="2.4" ry="2.2" fill="#FFD9BD"/>
  <ellipse cx="22.5" cy="34.5" rx="4.7" ry="3.4" fill="#A7D8CC"/>

  <ellipse cx="45" cy="42" rx="5.2" ry="3.5" fill="#A7D8CC"/>
  <ellipse cx="35" cy="46" rx="4.8" ry="3.6" fill="#A7D8CC"/>

  <circle cx="25.5" cy="27.8" r="1.1" fill="#3B4A47"/>
  <circle cx="30.2" cy="27.8" r="1.1" fill="#3B4A47"/>
  <path d="M25.8 31.1c1.5 1.4 2.8 1.4 4.1 0" fill="none" stroke="#3B4A47" stroke-width="1.4" stroke-linecap="round"/>
  <circle cx="22.8" cy="30.2" r="1.1" fill="#F7B9AA"/>
  <circle cx="32.8" cy="30.2" r="1.1" fill="#F7B9AA"/>

  <path d="M43.5 17.5c1.9-2.1 4.9-1.9 6.4.2 1.5-2.1 4.5-2.3 6.3-.2 1.7 2 .9 5-1.7 6.8l-4.6 3.2-4.6-3.2c-2.6-1.8-3.5-4.8-1.8-6.8z" fill="#FF9D9D"/>
</svg>
